<svg width="512" height="512" viewBox="0 0 512 512" fill="none" xmlns="http://www.w3.org/2000/svg">
  <!-- Background gradient -->
  <defs>
    <linearGradient id="bgGradient" x1="0%" y1="0%" x2="100%" y2="100%">
      <stop offset="0%" style="stop-color:#0ea5e9;stop-opacity:1" />
      <stop offset="100%" style="stop-color:#f59e0b;stop-opacity:1" />
    </linearGradient>
    <linearGradient id="flagGradient" x1="0%" y1="0%" x2="100%" y2="100%">
      <stop offset="0%" style="stop-color:#ff0000;stop-opacity:1" />
      <stop offset="33%" style="stop-color:#ffffff;stop-opacity:1" />
      <stop offset="66%" style="stop-color:#000000;stop-opacity:1" />
    </linearGradient>
    <filter id="shadow" x="-20%" y="-20%" width="140%" height="140%">
      <feDropShadow dx="0" dy="4" stdDeviation="8" flood-opacity="0.3"/>
    </filter>
  </defs>
  
  <!-- Background -->
  <rect width="512" height="512" rx="96" fill="url(#bgGradient)"/>
  
  <!-- House shape representing "البيت" -->
  <g filter="url(#shadow)">
    <!-- House base -->
    <rect x="128" y="256" width="256" height="192" rx="16" fill="white" opacity="0.95"/>
    
    <!-- House roof -->
    <path d="M 96 256 L 256 128 L 416 256 L 384 256 L 256 160 L 128 256 Z" fill="#1e40af" opacity="0.9"/>
    
    <!-- Door -->
    <rect x="224" y="352" width="64" height="96" rx="8" fill="#0ea5e9"/>
    
    <!-- Windows -->
    <rect x="160" y="288" width="48" height="48" rx="8" fill="#0ea5e9" opacity="0.8"/>
    <rect x="304" y="288" width="48" height="48" rx="8" fill="#0ea5e9" opacity="0.8"/>
    
    <!-- Sudan flag stripes in the house -->
    <rect x="140" y="360" width="72" height="8" fill="#ff0000"/>
    <rect x="140" y="376" width="72" height="8" fill="#ffffff"/>
    <rect x="140" y="392" width="72" height="8" fill="#000000"/>
    
    <rect x="300" y="360" width="72" height="8" fill="#ff0000"/>
    <rect x="300" y="376" width="72" height="8" fill="#ffffff"/>
    <rect x="300" y="392" width="72" height="8" fill="#000000"/>
  </g>
  
  <!-- Arabic text styling elements -->
  <g opacity="0.1">
    <!-- Decorative Islamic pattern -->
    <circle cx="128" cy="128" r="16" fill="white"/>
    <circle cx="384" cy="128" r="16" fill="white"/>
    <circle cx="128" cy="384" r="16" fill="white"/>
    <circle cx="384" cy="384" r="16" fill="white"/>
  </g>
  
  <!-- Small Sudan flag in corner -->
  <g transform="translate(400, 80)">
    <rect width="80" height="48" rx="4" fill="white" stroke="#ddd" stroke-width="1"/>
    <rect width="80" height="16" fill="#ff0000"/>
    <rect y="16" width="80" height="16" fill="#ffffff"/>
    <rect y="32" width="80" height="16" fill="#000000"/>
    <!-- Triangle -->
    <path d="M 0 0 L 32 24 L 0 48 Z" fill="#00ff00"/>
  </g>
</svg>
